{"title":"Maleficent.2014.1080p.BluRay.DTS.x264-GKNByNW","uid":11265907,"size":9146324837,"categoryP":"video","categoryS":"hd___movies","magnet":"?xt=urn:btih:c8577a9dcf471c27fe6441408a9ed6f0630c1a5e&amp;dn=Maleficent.2014.1080p.BluRay.DTS.x264-GKNByNW&amp;tr=udp%3A%2F%2Ftracker.openbittorrent.com%3A80&amp;tr=udp%3A%2F%2Fopen.demonii.com%3A1337&amp;tr=udp%3A%2F%2Ftracker.coppersurfer.tk%3A6969&amp;tr=udp%3A%2F%2Fexodus.desync.com%3A6969","seeders":2,"leechers":4,"uploader":"GKNByNW","files":8,"time":1414020233,"description":"Release Title : Maleficent.2014.1080p.BluRay.DTS.x264-GKNByNW\nRelease Date : 30 May 2014 (USA)\nRelease Length : 1:37:28\nGenre : Action | Adventure | Family\nLanguage : English\nSource : Maleficent.2014.Blu-ray.1080p.AVC.DTS-HD.MA.7.1-DIY-HDW\nTotal Size : 8.5GB\n\nimdB\n---- &lt;a href=&quot;\nhttp://www.imdb.com/title/tt1587310/&quot; rel=&quot;nofollow&quot; target=&quot;_NEW&quot;&gt;\nhttp://www.imdb.com/title/tt1587310/&lt;/a&gt;\n\nStoryline: A beautiful, pure-hearted young woman, Maleficent\nhas an idyllic life growing up in a peaceable forest kingdom,\nuntil one day when an invading army threatens the harmony of\nthe land. Maleficent rises to be the land's fiercest protector,\nbut she ultimately suffers a ruthless betrayal - an act that\nbegins to turn her pure heart to stone. Bent on revenge,\nMaleficent faces a battle with the invading king's successor\nand, as a result, places a curse upon his newborn infant Aurora.\nAs the child grows, Maleficent realizes that Aurora holds the\nkey to peace in the kingdom - and perhaps to Maleficent's true\nhappiness as well.\n\nCast\n----\nAngelina Jolie\t\t~\tMaleficent\nElle Fanning\t\t~\tAurora\nSharlto Copley\t\t~\tStefan\nLesley Manville\t\t~\tFlittle\nImelda Staunton\t\t~\tKnotgrass\nJuno Temple\t\t~\tThistletwit\nSam Riley\t\t~\tDiaval\nBrenton Thwaites\t~\tPrince Phillip\nKenneth Cranham\t\t~\tKing Henry\nSarah Flind\t\t~\tPrincess Leila's Handmaiden\nHannah New\t\t~\tPrincess Leila\nIsobelle Molloy\t\t~\tYoung Maleficent\nMichael Higgins\t\t~\tYoung Stefan\nElla Purnell\t\t~\tTeen Maleficent\nJackson Bews\t\t~\tTeen Stefan\n\n~~~~~~~~~~~~~~~~~~~~\n\nVideo Information\n-----------------\nID : 1\nFormat : AVC\nFormat/Info : Advanced Video Codec\nFormat profile : &lt;a class=&quot;__cf_email__&quot; href=&quot;/cdn-cgi/l/email-protection&quot; data-cfemail=&quot;d59dbcb2bd9599e1fbe4&quot;&gt;[email&amp;#160;protected]&lt;/a&gt;&lt;script cf-hash='f9e31' type=&quot;text/javascript&quot;&gt;\n/* &lt;![CDATA[ */!function(){try{var t=&quot;currentScript&quot;in document?document.currentScript:function(){for(var t=document.getElementsByTagName(&quot;script&quot;),e=t.length;e--;)if(t[e].getAttribute(&quot;cf-hash&quot;))return t[e]}();if(t&amp;&amp;t.previousSibling){var e,r,n,i,c=t.previousSibling,a=c.getAttribute(&quot;data-cfemail&quot;);if(a){for(e=&quot;&quot;,r=parseInt(a.substr(0,2),16),n=2;a.length-n;n+=2)i=parseInt(a.substr(n,2),16)^r,e+=String.fromCharCode(i);e=document.createTextNode(e),c.parentNode.replaceChild(e,c)}}}catch(u){}}();/* ]]&gt; */&lt;/script&gt;\nFormat settings, CABAC : Yes\nFormat settings, ReFrames : 5 frames\nCodec ID : V_MPEG4/ISO/AVC\nDuration : 1h 37mn\nBit rate : 11.0 Mbps\nWidth : 1 920 pixels\nHeight : 800 pixels\nDisplay aspect ratio : 2.40:1\nFrame rate mode : Constant\nFrame rate : 23.976 fps\nColor space : YUV\nChroma subsampling : 4:2:0\nBit depth : 8 bits\nScan type : Progressive\nBits/(Pixel*Frame) : 0.298\nStream size : 7.31 GiB (86%)\nWriting library : x264 core 138 r2358 9e941d1\n\nAudio Information\n-----------------\nID : 2\nFormat : DTS\nFormat/Info : Digital Theater Systems\nMode : 16\nFormat settings, Endianness : Big\nCodec ID : A_DTS\nDuration : 1h 37mn\nBit rate mode : Constant\nBit rate : 1 509 Kbps\nChannel(s) : 6 channels\nChannel positions : Front: L C R, Side: L R, LFE\nSampling rate : 48.0 KHz\nBit depth : 24 bits\nCompression mode : Lossy\nStream size : 1.03 GiB (12%)\nTitle : English\nLanguage : English\nDefault : Yes\nForced : No\n\nText #1 Information\n----------------\nID : 3\nFormat : PGS\nMuxing mode : zlib\nCodec ID : S_HDMV/PGS\nCodec ID/Info : The same subtitle format used on BDs/HD-DVDs\nTitle : English SDH\nLanguage : English\nDefault : No\nForced : No\n\nText #2 Information\n----------------\nID : 4\nFormat : PGS\nMuxing mode : zlib\nCodec ID : S_HDMV/PGS\nCodec ID/Info : The same subtitle format used on BDs/HD-DVDs\nTitle : French\nLanguage : French\nDefault : No\nForced : No\n\nChapters : Yes\n\n~~~~~~~~~~~~~~~~~~~~\n\nPlease seed as much as you take.\n\n---==* GKNByNW *==","torrent":{"xt":"urn:btih:c8577a9dcf471c27fe6441408a9ed6f0630c1a5e","amp;dn":"Maleficent.2014.1080p.BluRay.DTS.x264-GKNByNW","amp;tr":["udp%3A%2F%2Ftracker.openbittorrent.com%3A80","udp%3A%2F%2Fopen.demonii.com%3A1337","udp%3A%2F%2Ftracker.coppersurfer.tk%3A6969","udp%3A%2F%2Fexodus.desync.com%3A6969"],"infoHash":"c8577a9dcf471c27fe6441408a9ed6f0630c1a5e","infoHashBuffer":{"type":"Buffer","data":[200,87,122,157,207,71,28,39,254,100,65,64,138,158,214,240,99,12,26,94]},"announce":[],"urlList":[]}}